<svg xmlns="http://www.w3.org/2000/svg" viewBox="0 0 400 400"><defs><style>.cls-1{fill:#3469b6;}</style></defs><g id="HQ"><path class="cls-1" d="M67.2,199.25l-.11-1.73a11.21,11.21,0,0,0,3.46-1.61,5.08,5.08,0,0,0,1.31-1.68,5.74,5.74,0,0,0,.68-2.37q.24-4.1-2.73-4.26a2.81,2.81,0,0,0-2.11.71,9.39,9.39,0,0,0-1.92,3.24L65.19,193A9.68,9.68,0,0,1,62,197.45a7.44,7.44,0,0,1-4.51,1,6.69,6.69,0,0,1-4.88-2.57c-1.31-1.6-1.88-4-1.68-7.29a10.73,10.73,0,0,1,1-4.32,1.62,1.62,0,0,1,1.6-1.09,23.73,23.73,0,0,1,4,.65l-.1,1.72a7.39,7.39,0,0,0-2.93.91c-.87.48-1.35,1.54-1.45,3.17a5.21,5.21,0,0,0,.66,3.25,2.76,2.76,0,0,0,2.23,1.23,2.61,2.61,0,0,0,2.07-.66,10.53,10.53,0,0,0,1.73-3.14l.65-1.54c1.06-2.48,2.18-4.12,3.36-4.9a7,7,0,0,1,4.38-1,6.56,6.56,0,0,1,5,2.59,9.57,9.57,0,0,1,1.62,6.63,16.87,16.87,0,0,1-.6,3.65,8.24,8.24,0,0,1-1.17,2.66,2.7,2.7,0,0,1-2.24,1C69.76,199.36,68.59,199.33,67.2,199.25Z"/><path class="cls-1" d="M68.33,156.25q5.55,1.31,8.1,5.19a10.91,10.91,0,0,1,1.39,8.86A11.07,11.07,0,0,1,73,177.58q-3.62,2.25-9.16.93a13,13,0,0,1-6.22-3.18,10.49,10.49,0,0,1-3.06-5.11,12.28,12.28,0,0,1,0-5.81q1.21-5.17,4.79-7.3T68.33,156.25Zm-.9,6.26a29.29,29.29,0,0,0-4.24-.73,12.49,12.49,0,0,0-3,0,5,5,0,0,0-1.9.66,3.44,3.44,0,0,0-1.12,1.09,5.22,5.22,0,0,0-.56,1.45,4.17,4.17,0,0,0,0,1.86,4.87,4.87,0,0,0,1,1.92,7.48,7.48,0,0,0,2.66,1.92,23,23,0,0,0,4.7,1.57,22.51,22.51,0,0,0,6.1.77,5.48,5.48,0,0,0,3.32-1,4.59,4.59,0,0,0,1.38-2.5,4.05,4.05,0,0,0-1.2-4.11C73.37,164.33,71,163.35,67.43,162.51Z"/><path class="cls-1" d="M71.3,126.71c-.47,1.06-.63,1.72-.48,2a3.25,3.25,0,0,0,1.31.91c1.15.58,3.84,1.86,8.08,3.86a26.18,26.18,0,0,1,4.3,2.42,6.48,6.48,0,0,1,2,2.53,8.13,8.13,0,0,1,.54,3.85A12.6,12.6,0,0,1,86,146.59a14.13,14.13,0,0,1-3,4.43,6.47,6.47,0,0,1-3.4,1.91,8.7,8.7,0,0,1-3-.11,20.49,20.49,0,0,1-4.22-1.53L64,147.44c-.9-.41-1.44-.56-1.65-.45s-.59.6-1,1.46l-1.72-.79q.59-1.11,2-4.26,1.9-4.14,2.25-5.05l1.71.78a3.86,3.86,0,0,0-.45,1.91c.11.26.54.56,1.28.9l7.92,3.63a17.47,17.47,0,0,0,5.22,1.71,3.9,3.9,0,0,0,2.55-.66A5.22,5.22,0,0,0,84,144.37q1.52-3.3.15-5.27c-.69-1-2.69-2.28-6-3.8-1.66-.75-4-1.79-7.2-3.11a2.68,2.68,0,0,0-1.51-.3c-.28.05-.74.68-1.38,1.9L66.33,133c.31-.58.92-1.85,1.83-3.82.64-1.4,1.11-2.49,1.42-3.27Z"/><path class="cls-1" d="M100.26,122c-.41.5-1.54,2-3.37,4.64-1.44,2-2.38,3.41-2.83,4.12l-1.54-1.09a3.7,3.7,0,0,0,.84-2c-.06-.27-.45-.66-1.15-1.15l-12.88-9.12a1.62,1.62,0,0,0-.88-.39c-.21,0-.44.2-.7.56l-.72,1c-.66.93-.86,1.68-.6,2.23a13.53,13.53,0,0,0,1.63,2.36l-1,1.34c-1.15-.67-2.33-1.44-3.55-2.3a1.51,1.51,0,0,1-.72-.89,1.4,1.4,0,0,1,.32-1l2.5-3.51c1.2-1.66,2.09-2.92,2.69-3.75L81,109.31l2.46-3.51a1.26,1.26,0,0,1,2-.41,26.32,26.32,0,0,1,3.3,2.72l-1,1.37a6.76,6.76,0,0,0-2.84-.94,2.45,2.45,0,0,0-1.65,1.24L82.4,111a1,1,0,0,0-.24.77,1.51,1.51,0,0,0,.65.72l12.9,9.14a2.77,2.77,0,0,0,1.42.65c.35,0,.88-.47,1.59-1.4Z"/><path class="cls-1" d="M121.21,100q-.75.63-4.13,3.89-2.61,2.52-3.47,3.45L112.3,106c.75-.83,1.14-1.39,1.14-1.69s-.31-.72-.94-1.37l-4.84-5-5.23,5,4.86,5a2.82,2.82,0,0,0,1.3.94c.32.07.91-.28,1.74-1l1.32,1.35q-.75.63-4.13,3.89-2.61,2.52-3.47,3.45l-1.31-1.36c.75-.83,1.13-1.39,1.14-1.69s-.31-.72-.94-1.37L92.39,101.25c-.63-.66-1.08-1-1.34-1s-.87.36-1.73,1.08L88,100c.64-.55,1.83-1.66,3.57-3.35,2.25-2.17,3.6-3.5,4-4L96.92,94q-1.2,1.21-1.11,1.71A2.93,2.93,0,0,0,96.7,97l4.18,4.33,5.23-5.05L102,92c-.64-.66-1.08-1-1.35-1s-.87.35-1.72,1.08l-1.32-1.36q1-.82,3.58-3.35c2.24-2.17,3.59-3.5,4-4l1.32,1.36c-.81.81-1.18,1.38-1.12,1.72a2.93,2.93,0,0,0,.89,1.32l10.59,11a3,3,0,0,0,1.3.94c.32.07.91-.28,1.75-1.06Z"/><path class="cls-1" d="M123,98.92l-1-1.57q1.43-1.08,1.44-1.5a3.25,3.25,0,0,0-.7-1.51l-8.36-12.63c-.51-.78-.89-1.2-1.13-1.26s-1,.18-1.9.8l-1-1.58c.72-.42,2.1-1.31,4.12-2.64l4.44-3q3.14-2.11,4.36-2.93c1-.64,1.7-.6,2.17.12a36.73,36.73,0,0,1,1.91,3.64l-1.43,1a4.38,4.38,0,0,0-2.11-1.67c-.64-.13-1.65.25-3,1.15l-1.34.89a1.35,1.35,0,0,0-.65.77,1.28,1.28,0,0,0,.27,1l3.75,5.66c.83-.56,1.48-1,1.93-1.32a4.79,4.79,0,0,0,1.24-1.12,1.65,1.65,0,0,0,.08-1,9.22,9.22,0,0,0-.66-1.86l1.4-.93c.59,1,1.38,2.28,2.34,3.74S130.72,83.64,131,84l-1.46,1q-1.53-1.75-2.19-1.74a6.64,6.64,0,0,0-1.62.74c-.28.16-.93.57-1.94,1.24l3.45,5.22a4.33,4.33,0,0,0,1.25,1.44c.5.21,1.21,0,2.14-.62l1.35-.89c1.36-.9,2.1-1.78,2.23-2.65a8.6,8.6,0,0,0-.43-3.11l1.35-.81a39,39,0,0,1,2,3.48,5.78,5.78,0,0,1,.37,1,1.27,1.27,0,0,1-.12.83,2.11,2.11,0,0,1-.82.88l-4.9,3.22-4.6,3C125,97.5,123.63,98.42,123,98.92Z"/><path class="cls-1" d="M150,83.32q-.93.33-5.1,2.13-3.63,1.56-4.76,2.13l-.75-1.73c1-.53,1.6-.95,1.67-1.26a3.37,3.37,0,0,0-.44-1.64l-6-13.87c-.36-.83-.67-1.3-.91-1.4a4.31,4.31,0,0,0-2,.44L131,66.39c.78-.29,2.57-1,5.35-2.24.5-.21,1.27-.56,2.34-1l2.08-.92A15.47,15.47,0,0,1,146,60.76a5.75,5.75,0,0,1,3.19.81,5.31,5.31,0,0,1,2.15,2.56A6.92,6.92,0,0,1,152,68a6.71,6.71,0,0,1-1.66,3.31,60.12,60.12,0,0,0,6.48,5.12,4.93,4.93,0,0,0,2,.74,3.66,3.66,0,0,0,1.49-.34l.79,1.65a27.16,27.16,0,0,1-3.55,1.75,10,10,0,0,1-3.25,1,3.41,3.41,0,0,1-2.1-.54,37.53,37.53,0,0,1-6.8-6.39l-.23.09c-.77.34-1.27.54-1.52.62l2.4,5.56c.41.94.76,1.45,1,1.53a4,4,0,0,0,2.13-.46ZM142.83,73a9.29,9.29,0,0,0,1.24-.46,4.62,4.62,0,0,0,1.81-1.2c.77-1,.73-2.46-.14-4.47s-2.05-3-3.48-2.84a6.29,6.29,0,0,0-1.85.57c-.55.24-.81.53-.77.86a6.6,6.6,0,0,0,.4,1.09Z"/><path class="cls-1" d="M169.43,76.63c-.65.1-1.79.32-3.43.67-1.85.4-3.18.71-4,.94l-.4-1.85c1.18-.3,1.82-.6,1.92-.88a4.07,4.07,0,0,0-.08-1.7q-1.14-6.63-2.92-14.83a2.86,2.86,0,0,0-.62-1.55,3.63,3.63,0,0,0-2.07,0l-.4-1.84q2.48-.47,4.5-.9c1.63-.36,2.7-.6,3.18-.73q10.59,9.09,13.24,11.57l.14-.11q-2.06-8.52-2.37-9.79a3.21,3.21,0,0,0-.59-1.41c-.25-.28-1-.32-2.35-.1l-.4-1.85c.65-.09,1.9-.34,3.75-.74,1.59-.34,2.79-.63,3.61-.85l.39,1.85c-1.06.25-1.68.55-1.84.9a4.19,4.19,0,0,0,.07,1.66q1,5,4,19.07l-2.73.59L163.23,59.91l-.12.07q1.57,6.75,3,13.33a2.89,2.89,0,0,0,.64,1.47c.29.25,1.06.25,2.29,0Z"/><path class="cls-1" d="M214.41,67.15a16.49,16.49,0,0,1-.47,3.55,3.06,3.06,0,0,1-2.13,2.14,15.35,15.35,0,0,1-5.55.62c-3.78-.12-6.59-1.21-8.43-3.25s-2.71-4.91-2.59-8.59q.21-6.4,3.63-9.33t9.33-2.74a13.65,13.65,0,0,1,4.66.89,2.78,2.78,0,0,1,1.09.74,1.94,1.94,0,0,1,.35,1.34,19.25,19.25,0,0,1-.62,3.65L212,56.11a18,18,0,0,0-.51-2.57,2.36,2.36,0,0,0-.76-1.18,4.55,4.55,0,0,0-2.64-.71,5,5,0,0,0-4.6,2.44,13.37,13.37,0,0,0-1.84,7q-.33,10,5.83,10.24a5.09,5.09,0,0,0,3.14-.81A7.91,7.91,0,0,0,212.8,67Z"/><path class="cls-1" d="M223.38,75c-1.06-.28-2.5-.61-4.31-1-1.38-.29-2.65-.54-3.8-.74l.4-1.85a2.67,2.67,0,0,0,1.87-.06,5.64,5.64,0,0,0,1.6-1.81L230,52.82l3.43.74,3.26,19.52a7.21,7.21,0,0,0,.76,2.59,2.65,2.65,0,0,0,1.33.67l-.4,1.85c-.86-.23-2.48-.6-4.87-1.11q-4.35-.94-6.07-1.23l.4-1.85a14,14,0,0,0,1.7.22.91.91,0,0,0,.95-.76,8.39,8.39,0,0,0-.15-2.1l-.42-3.07-6-1.29-1.64,2.86a5.92,5.92,0,0,0-.68,1.69.89.89,0,0,0,.59,1.09,7.48,7.48,0,0,0,1.61.49ZM225.1,64.9l4.49,1q-.75-5.78-.8-6.89l-.14,0Q228.3,59.54,225.1,64.9Z"/><path class="cls-1" d="M239.25,78.69,240,77c1.13.38,1.81.49,2,.34a3.23,3.23,0,0,0,.85-1.43l5.72-14a2.88,2.88,0,0,0,.36-1.63c-.12-.27-.68-.66-1.69-1.14l.72-1.75c.75.36,2.37,1,4.83,2q4,1.64,4.95,1.94L257,63.06c-1.06-.41-1.74-.53-2-.34a2.88,2.88,0,0,0-.89,1.34l-5.47,13.41a4.78,4.78,0,0,0-.48,1.84c0,.45.55.87,1.52,1.27l1.59.64c1.6.65,2.79.79,3.57.4a8.43,8.43,0,0,0,2.34-2.11l1.43.66a39.94,39.94,0,0,1-1.77,3.59,6.18,6.18,0,0,1-.59.85,1.31,1.31,0,0,1-.76.38,2.15,2.15,0,0,1-1.19-.19l-5.42-2.23-5.09-2.09C241.56,79.56,240,79,239.25,78.69Z"/><path class="cls-1" d="M266.78,91.73c-.55-.36-2.08-1.26-4.6-2.68-2.31-1.3-3.85-2.14-4.6-2.51l.93-1.65a3.92,3.92,0,0,0,1.94.62c.25-.07.61-.51,1.05-1.3L269,71c.45-.79.64-1.31.57-1.57s-.59-.73-1.53-1.34l.93-1.65q1.06.69,4.53,2.64c2.52,1.42,4.07,2.28,4.67,2.56l-.93,1.64c-1-.54-1.66-.74-2-.58a2.93,2.93,0,0,0-1,1.23l-7.5,13.28a2.89,2.89,0,0,0-.51,1.48c.06.32.56.79,1.5,1.4Z"/><path class="cls-1" d="M277.56,99.35q-.74-.64-4.77-3.67-2.91-2.18-4-2.88L270,91.29a4,4,0,0,0,1.84.86c.27,0,.67-.42,1.21-1.15l9.11-12.14a3.42,3.42,0,0,0,.82-1.49c0-.35-.5-.85-1.4-1.53l1.14-1.51c.64.55,1.93,1.54,3.87,3l4.3,3.18q3,2.23,4.22,3.12a2.64,2.64,0,0,1,.9,1,1,1,0,0,1-.21,1,36.41,36.41,0,0,1-2.86,3.11l-1.37-1a4.45,4.45,0,0,0,.88-2.57c-.07-.61-.78-1.42-2.14-2.45l-1.37-1a1,1,0,0,0-1.63.3L283,87.74c.8.6,1.44,1.06,1.9,1.38a5.21,5.21,0,0,0,1.46.79,1.68,1.68,0,0,0,.95-.25,9.92,9.92,0,0,0,1.53-1.26l1.35,1q-1.15,1.36-2.73,3.46c-1.14,1.51-1.82,2.44-2.05,2.79l-1.4-1c.75-1.35,1.05-2.24.89-2.65a6.07,6.07,0,0,0-1.23-1.27c-.24-.22-.85-.69-1.82-1.41l-3.95,5.26a2.69,2.69,0,0,0-.73,1.55c0,.36.55.94,1.58,1.75Z"/><path class="cls-1" d="M308.08,111.9a12.62,12.62,0,0,1-8.78,3.95,10.93,10.93,0,0,1-8.17-3.68,11.1,11.1,0,0,1-3.48-8q.11-4.24,4.23-8.19A13.23,13.23,0,0,1,298,92.51a10.52,10.52,0,0,1,5.94.23,12.28,12.28,0,0,1,4.86,3.2q3.67,3.84,3.5,8T308.08,111.9Zm-4.75-4.17a30.77,30.77,0,0,0,2.93-3.16,12.45,12.45,0,0,0,1.61-2.5,5.06,5.06,0,0,0,.48-1.95,3.54,3.54,0,0,0-.3-1.53,5.24,5.24,0,0,0-.91-1.26,4.2,4.2,0,0,0-1.55-1,5,5,0,0,0-2.15-.22,7.38,7.38,0,0,0-3.06,1.18,23.23,23.23,0,0,0-3.88,3.07,22.83,22.83,0,0,0-4,4.7,5.48,5.48,0,0,0-1,3.31,4.54,4.54,0,0,0,1.34,2.52,4,4,0,0,0,4.1,1.23Q299.36,111.53,303.33,107.73Z"/><path class="cls-1" d="M306.4,130.86c-.31-.57-1.29-2.14-2.92-4.69q-2.13-3.33-2.87-4.35l1.59-1c.69,1,1.19,1.43,1.5,1.45a3.46,3.46,0,0,0,1.55-.7L318,113.4c.77-.49,1.18-.87,1.24-1.13a4.39,4.39,0,0,0-.75-1.88l1.59-1q.61,1.09,3.07,4.93l1.39,2.14c.64,1,1.05,1.61,1.24,1.9a15.27,15.27,0,0,1,2.28,5,5.77,5.77,0,0,1-.29,3.28,5.36,5.36,0,0,1-2.18,2.54,7,7,0,0,1-3.72,1.26,6.74,6.74,0,0,1-3.53-1.1,59.93,59.93,0,0,0-4,7.22,5.18,5.18,0,0,0-.41,2.09,3.86,3.86,0,0,0,.58,1.41l-1.49,1a26.58,26.58,0,0,1-2.31-3.21,10.23,10.23,0,0,1-1.46-3,3.43,3.43,0,0,1,.19-2.16,37.47,37.47,0,0,1,5.22-7.75l-.13-.2c-.45-.71-.74-1.18-.86-1.41l-5.09,3.26c-.87.56-1.32,1-1.35,1.28a3.92,3.92,0,0,0,.8,2Zm9-8.73a8.07,8.07,0,0,0,.66,1.16,4.6,4.6,0,0,0,1.47,1.59c1.08.6,2.55.32,4.39-.86s2.64-2.51,2.25-3.89a6.84,6.84,0,0,0-.86-1.74c-.33-.51-.66-.71-1-.61a4.62,4.62,0,0,0-1,.56Z"/><path class="cls-1" d="M316.14,149c-.2-.63-.6-1.72-1.22-3.28q-1-2.64-1.56-3.78l1.75-.7c.49,1.11.88,1.7,1.18,1.76a4.44,4.44,0,0,0,1.67-.36q6.35-2.21,14.16-5.28c.82-.33,1.3-.62,1.42-.87s0-1-.35-2l1.76-.69c.57,1.58,1.11,3,1.61,4.29.62,1.56,1,2.56,1.23,3Q330.54,153,328.53,156l.12.12,9.28-3.92a3.44,3.44,0,0,0,1.3-.81c.23-.3.14-1.07-.28-2.34l1.76-.69c.19.63.64,1.82,1.33,3.57.6,1.52,1.07,2.66,1.43,3.43l-1.76.69c-.43-1-.82-1.57-1.19-1.68a4.31,4.31,0,0,0-1.63.35q-4.78,1.77-18.16,7.05l-1-2.61,11.93-19-.08-.11q-6.42,2.64-12.67,5.11a3,3,0,0,0-1.35.87c-.2.33-.07,1.08.37,2.26Z"/><path class="cls-1" d="M324.44,176.11q-.15-1-1.11-5.2-.88-3.89-1.23-5.1l1.84-.42a3.79,3.79,0,0,0,.85,1.85,2.82,2.82,0,0,0,1.66-.09l14.8-3.37a2.92,2.92,0,0,0,1.55-.63,4.06,4.06,0,0,0,0-2l1.84-.42q.21,1.25,1.1,5.13,1,4.23,1.25,5.17l-1.84.42c-.28-1.11-.58-1.72-.89-1.84a3,3,0,0,0-1.6.07L327.75,173a2.78,2.78,0,0,0-1.43.61c-.21.26-.22,1,0,2.05Z"/><path class="cls-1" d="M325.73,185.45c0-1.1-.13-2.57-.28-4.41-.11-1.42-.24-2.7-.37-3.86L327,177a2.72,2.72,0,0,0,.6,1.78,5.87,5.87,0,0,0,2.18,1l19.11,5.61.28,3.49-17.77,8.71a7.31,7.31,0,0,0-2.27,1.48,2.82,2.82,0,0,0-.27,1.46l-1.88.15c0-.89-.13-2.55-.32-5-.24-3-.42-5-.56-6.16l1.88-.15a11.9,11.9,0,0,0,.28,1.7.91.91,0,0,0,1,.69,8.26,8.26,0,0,0,2-.75L334,189.8l-.48-6.14-3.21-.75a6.23,6.23,0,0,0-1.81-.17.9.9,0,0,0-.88.88,8.2,8.2,0,0,0,0,1.68Zm10.15-1.23.36,4.57c3.55-1.58,5.67-2.49,6.38-2.74v-.14C342.16,185.81,339.91,185.24,335.88,184.22Z"/><path class="cls-1" d="M75.3,284q-.49-.84-3.06-4.6-2.23-3.25-3-4.26L70.8,274c.71.93,1.23,1.39,1.55,1.4a3.37,3.37,0,0,0,1.52-.74l12.48-8.53c.75-.51,1.15-.9,1.2-1.16a4.31,4.31,0,0,0-.81-1.86l1.56-1.06c.43.72,1.51,2.33,3.22,4.83.3.44.78,1.14,1.45,2.1s1.1,1.58,1.3,1.87a15.17,15.17,0,0,1,2.42,4.91,5.78,5.78,0,0,1-.19,3.28,5.36,5.36,0,0,1-2.1,2.6A6.94,6.94,0,0,1,90.72,283a6.73,6.73,0,0,1-3.56-1,60.26,60.26,0,0,0-3.8,7.34,4.94,4.94,0,0,0-.34,2.1,3.82,3.82,0,0,0,.61,1.4L82.17,294a28.87,28.87,0,0,1-2.4-3.15,10.1,10.1,0,0,1-1.55-3,3.37,3.37,0,0,1,.13-2.16,37.59,37.59,0,0,1,5-7.9l-.14-.2q-.72-1-.9-1.38l-5,3.42c-.84.58-1.28,1-1.3,1.31a3.83,3.83,0,0,0,.86,2Zm8.76-9a13.32,13.32,0,0,0,.69,1.14,4.6,4.6,0,0,0,1.52,1.54q1.65.87,4.37-1t2.13-3.95a6.66,6.66,0,0,0-.92-1.71c-.34-.5-.67-.7-1-.59a5.43,5.43,0,0,0-1,.59Z"/><path class="cls-1" d="M124.7,305.37c-.9-.74-1.49-1.08-1.77-1a3.17,3.17,0,0,0-1.23,1q-1.32,1.41-6,6.7a26.69,26.69,0,0,1-3.51,3.46,6.28,6.28,0,0,1-3,1.26,7.92,7.92,0,0,1-3.85-.54,12.7,12.7,0,0,1-3.85-2.3,14.17,14.17,0,0,1-3.42-4.13,6.35,6.35,0,0,1-.89-3.78,8.47,8.47,0,0,1,.91-2.81,21,21,0,0,1,2.65-3.64l6-7c.64-.75.94-1.23.89-1.46s-.41-.74-1.12-1.38l1.23-1.43c.6.58,1.78,1.63,3.53,3.13q3.45,3,4.24,3.56l-1.24,1.43c-.89-.68-1.46-1-1.71-1s-.68.37-1.21,1l-5.69,6.6a17.38,17.38,0,0,0-3.08,4.54,3.86,3.86,0,0,0-.07,2.64,5.21,5.21,0,0,0,1.64,2.4c1.84,1.59,3.51,2.12,5,1.61q1.74-.57,5.3-4.71c1.19-1.38,2.85-3.39,5-6.05a2.78,2.78,0,0,0,.72-1.37c0-.28-.46-.9-1.45-1.85l1.23-1.43c.46.46,1.52,1.4,3.16,2.81,1.17,1,2.08,1.77,2.75,2.28Z"/><path class="cls-1" d="M119.67,319.19l1.58.7a11.35,11.35,0,0,0-.15,3.81,5,5,0,0,0,.89,1.93,5.81,5.81,0,0,0,1.8,1.7q3.52,2.09,5-.48a2.77,2.77,0,0,0,.33-2.2,9.33,9.33,0,0,0-2-3.19l-1-1.18a9.62,9.62,0,0,1-2.52-4.9,7.39,7.39,0,0,1,1.2-4.46,6.63,6.63,0,0,1,4.51-3.16q3-.66,7.25,1.84a10.84,10.84,0,0,1,3.37,2.89,1.65,1.65,0,0,1,.24,1.93,23.27,23.27,0,0,1-2.4,3.22l-1.47-.88a7.67,7.67,0,0,0,.53-3c0-1-.76-1.91-2.16-2.74a5.12,5.12,0,0,0-3.19-.89,2.74,2.74,0,0,0-2.12,1.41,2.58,2.58,0,0,0-.36,2.14,10.7,10.7,0,0,0,2,3l1.07,1.28q2.58,3.12,2.82,5.23a6.93,6.93,0,0,1-1.1,4.36,6.5,6.5,0,0,1-4.59,3.24,9.52,9.52,0,0,1-6.63-1.59,17.23,17.23,0,0,1-3-2.21,8.07,8.07,0,0,1-1.83-2.26,2.72,2.72,0,0,1,.15-2.44C118.39,321.42,119,320.39,119.67,319.19Z"/><path class="cls-1" d="M136,336.13l.69-1.76c1.13.38,1.82.49,2,.33a3.37,3.37,0,0,0,.84-1.44l5.57-14.08a3.35,3.35,0,0,0,.39-1.65c-.12-.33-.71-.7-1.75-1.11l.7-1.75q1.14.52,4.53,1.86c1,.39,2.64,1,5,1.94s4,1.54,4.89,1.9c1.08.42,1.46,1,1.15,1.84a37,37,0,0,1-1.9,3.65l-1.59-.63a4.47,4.47,0,0,0,.16-2.68c-.27-.61-1.16-1.21-2.67-1.81l-1.5-.59a1.34,1.34,0,0,0-1-.09,1.23,1.23,0,0,0-.62.76l-2.5,6.31c.93.37,1.67.65,2.2.83a4.88,4.88,0,0,0,1.61.38,1.69,1.69,0,0,0,.86-.49,9.8,9.8,0,0,0,1.14-1.61l1.56.61c-.5,1.08-1.07,2.44-1.72,4.06s-1.1,2.84-1.24,3.23l-1.62-.64c.37-1.51.42-2.44.16-2.79a6.11,6.11,0,0,0-1.52-.9c-.3-.15-1-.44-2.13-.89l-2.31,5.82a4.53,4.53,0,0,0-.47,1.85c.12.52.7,1,1.74,1.4l1.5.6c1.52.6,2.67.7,3.45.31a8.63,8.63,0,0,0,2.31-2.14l1.44.65c-.76,1.73-1.34,2.93-1.73,3.6a5.91,5.91,0,0,1-.58.86,1.28,1.28,0,0,1-.75.38,2.14,2.14,0,0,1-1.2-.17l-5.44-2.17-5.11-2C138.34,337,136.81,336.4,136,336.13Z"/><path class="cls-1" d="M170.36,347.15c-.63-.17-2.44-.55-5.41-1.14-2.58-.52-4.29-.83-5.12-.95l.37-1.85c1.15.16,1.85.13,2.08-.09a3.37,3.37,0,0,0,.57-1.6l3-14.82a2.81,2.81,0,0,0,0-1.66,4.15,4.15,0,0,0-1.88-.77l.37-1.85c.81.21,2.71.61,5.68,1.2l2.51.48,2.23.43a15.2,15.2,0,0,1,5.17,1.81,5.78,5.78,0,0,1,2.16,2.48,5.33,5.33,0,0,1,.32,3.33,6.9,6.9,0,0,1-1.67,3.55,6.72,6.72,0,0,1-3.24,1.78,60.43,60.43,0,0,0,2.42,7.9,5.1,5.1,0,0,0,1.22,1.74,3.76,3.76,0,0,0,1.42.57l-.28,1.8a28.51,28.51,0,0,1-3.92-.57,10.17,10.17,0,0,1-3.21-1.06,3.4,3.4,0,0,1-1.42-1.64,37.35,37.35,0,0,1-2-9.13l-.24,0c-.82-.16-1.36-.28-1.6-.35l-1.18,5.93c-.2,1-.21,1.63,0,1.85a3.81,3.81,0,0,0,2,.83Zm0-12.56a10.69,10.69,0,0,0,1.29.33,4.55,4.55,0,0,0,2.17,0q1.78-.54,2.43-3.76c.43-2.2,0-3.63-1.25-4.31a6.41,6.41,0,0,0-1.85-.58c-.59-.12-1,0-1.12.27a5.08,5.08,0,0,0-.29,1.12Z"/><path class="cls-1" d="M187.72,343.16l1.72-.15a11.46,11.46,0,0,0,1.72,3.41,4.92,4.92,0,0,0,1.71,1.25,5.77,5.77,0,0,0,2.39.62c2.73.08,4.12-.88,4.18-2.86a2.79,2.79,0,0,0-.77-2.09,9.57,9.57,0,0,0-3.31-1.82l-1.42-.55a9.58,9.58,0,0,1-4.58-3.08,7.42,7.42,0,0,1-1.11-4.47,6.65,6.65,0,0,1,2.42-4.95q2.34-2.06,7.23-1.9a11,11,0,0,1,4.35.89,1.64,1.64,0,0,1,1.14,1.58,23.44,23.44,0,0,1-.53,4l-1.72-.05a7.35,7.35,0,0,0-1-2.9c-.51-.85-1.58-1.31-3.21-1.35a5.05,5.05,0,0,0-3.22.76,2.71,2.71,0,0,0-1.17,2.26,2.56,2.56,0,0,0,.72,2,10.44,10.44,0,0,0,3.19,1.63L198,336c2.51,1,4.18,2.05,5,3.21a7,7,0,0,1,1.15,4.35,6.51,6.51,0,0,1-2.44,5.06,9.58,9.58,0,0,1-6.58,1.81,17,17,0,0,1-3.66-.49,8,8,0,0,1-2.7-1.1,2.69,2.69,0,0,1-1.05-2.2C187.68,345.73,187.68,344.56,187.72,343.16Z"/><path class="cls-1" d="M240.2,343.86a26.8,26.8,0,0,1-8.82,3.47q-10.89,2.25-13.21-9-1.29-6.24,1.44-9.92t8.56-4.9a15.76,15.76,0,0,1,5.52-.43,2.73,2.73,0,0,1,1.22.46,2.05,2.05,0,0,1,.64,1.26,19.5,19.5,0,0,1,.26,3.7l-1.64.34a23.75,23.75,0,0,0-1-2.4,2.11,2.11,0,0,0-1-.93,6.39,6.39,0,0,0-3.42,0,5.48,5.48,0,0,0-4.21,3.48,12.62,12.62,0,0,0-.24,7.3c.74,3.59,1.75,6,3,7.29a4.75,4.75,0,0,0,4.58,1.35,2.69,2.69,0,0,0,1.87-1,1.41,1.41,0,0,0,.1-1.09l-.72-3.49c-.2-1-.42-1.51-.67-1.65a3.65,3.65,0,0,0-2.2.06l-.39-1.88c1.66-.3,3.37-.63,5.15-1s3.38-.72,4.65-1l.39,1.88c-.84.2-1.32.43-1.43.69a3.12,3.12,0,0,0,.09,1.63l.56,2.74A14.49,14.49,0,0,0,240.2,343.86Z"/><path class="cls-1" d="M258.41,338.51q-.93.32-5.12,2.07c-2.43,1-4,1.71-4.78,2.08l-.73-1.74c1-.51,1.6-.93,1.68-1.23A3.34,3.34,0,0,0,249,338l-5.84-13.93q-.54-1.26-.9-1.41a4.19,4.19,0,0,0-2,.42l-.73-1.74c.79-.28,2.59-1,5.38-2.19.5-.2,1.28-.54,2.35-1l2.09-.89a15.35,15.35,0,0,1,5.3-1.4,5.83,5.83,0,0,1,3.18.85,5.3,5.3,0,0,1,2.12,2.58,6.91,6.91,0,0,1,.61,3.88,6.76,6.76,0,0,1-1.69,3.29,61.84,61.84,0,0,0,6.42,5.19,5,5,0,0,0,2,.76,4,4,0,0,0,1.5-.32l.77,1.65A28.39,28.39,0,0,1,266,335.5a10,10,0,0,1-3.26.91,3.38,3.38,0,0,1-2.09-.56,37.44,37.44,0,0,1-6.74-6.46l-.22.09q-1.17.48-1.53.6l2.34,5.58c.4.95.74,1.46,1,1.54a3.8,3.8,0,0,0,2.13-.44Zm-7.06-10.39a12.84,12.84,0,0,0,1.26-.45,4.62,4.62,0,0,0,1.81-1.18q1.19-1.46-.09-4.48t-3.45-2.88a7.16,7.16,0,0,0-1.85.55c-.56.24-.82.53-.78.86a5.86,5.86,0,0,0,.38,1.09Z"/><path class="cls-1" d="M286.9,308.37q3.17,4.74,2.39,9.33a10.92,10.92,0,0,1-5,7.42,11.07,11.07,0,0,1-8.48,2.05q-4.17-.82-7.34-5.56a13.13,13.13,0,0,1-2.38-6.58,10.41,10.41,0,0,1,1.25-5.81,12.31,12.31,0,0,1,4-4.25q4.41-3,8.48-2.07T286.9,308.37Zm-4.92,4a30.07,30.07,0,0,0-2.61-3.43,12.58,12.58,0,0,0-2.19-2,5,5,0,0,0-1.84-.81,3.37,3.37,0,0,0-1.56,0,5,5,0,0,0-1.4.69,4.09,4.09,0,0,0-1.28,1.34,4.82,4.82,0,0,0-.59,2.08,7.34,7.34,0,0,0,.63,3.21,22.62,22.62,0,0,0,2.37,4.36,22.85,22.85,0,0,0,3.94,4.72,5.51,5.51,0,0,0,3.1,1.55,4.55,4.55,0,0,0,2.71-.89,4.06,4.06,0,0,0,1.92-3.83Q285,316.91,282,312.34Z"/><path class="cls-1" d="M301,281.92c-.8.84-1.18,1.4-1.13,1.68a3.26,3.26,0,0,0,.92,1.31q1.32,1.41,6.27,6.4a26.6,26.6,0,0,1,3.2,3.75,6.35,6.35,0,0,1,1,3.08,7.8,7.8,0,0,1-.81,3.8,12.75,12.75,0,0,1-2.56,3.69,14.18,14.18,0,0,1-4.36,3.12,6.5,6.5,0,0,1-3.84.63,8.86,8.86,0,0,1-2.74-1.12,21,21,0,0,1-3.44-2.89l-6.55-6.5c-.7-.69-1.16-1-1.39-1a3.39,3.39,0,0,0-1.46,1l-1.34-1.33c.63-.56,1.75-1.67,3.37-3.31q3.21-3.22,3.85-4l1.34,1.33c-.74.84-1.1,1.39-1.08,1.64s.31.71.89,1.28l6.19,6.13a17,17,0,0,0,4.32,3.39,3.8,3.8,0,0,0,2.62.26,5.13,5.13,0,0,0,2.52-1.47q2.55-2.58,1.95-4.9-.45-1.79-4.33-5.62-1.94-1.92-5.68-5.39a2.72,2.72,0,0,0-1.32-.81q-.42-.08-1.95,1.32l-1.34-1.33c.49-.43,1.5-1.42,3-3q1.62-1.64,2.46-2.58Z"/><path class="cls-1" d="M326.24,282.42q-.6.76-3.27,4.75c-1.47,2.18-2.42,3.64-2.85,4.36l-1.57-1c.59-1,.84-1.69.75-1.94s-.5-.63-1.25-1.14L305.5,279c-.75-.51-1.26-.74-1.52-.69s-.84.55-1.46,1.42l-1.56-1c.5-.67,1.59-2.26,3.27-4.75l1.62-2.44,1.45-2.2a16.19,16.19,0,0,1,3.37-3.89,4.75,4.75,0,0,1,3.1-1,6.31,6.31,0,0,1,3.36,1.15q4.78,3.22,2.83,8.27a19.16,19.16,0,0,1-1.9,3.57c-.63,1-1.09,1.59-1.36,1.91l4.59,3.08a3,3,0,0,0,1.65.73c.38,0,1-.59,1.73-1.7ZM315,278.08a11.14,11.14,0,0,0,.82-1.1,4.78,4.78,0,0,0,.89-2.14c.11-1.29-.83-2.62-2.82-3.95s-3.38-1.43-4.57-.54a7.12,7.12,0,0,0-1.45,1.72c-.3.44-.34.8-.12,1.05a5.3,5.3,0,0,0,.92.71Z"/><path class="cls-1" d="M186.13,164.61l.06.08.06-.08c0-.09,0-.18-.06-.3C186.17,164.43,186.15,164.52,186.13,164.61Z"/><path class="cls-1" d="M247.08,140.76a41.53,41.53,0,0,0-21.25-14.35q-13-3.85-41.14-3.88H127.85v6.52a10.94,10.94,0,0,1,4.8,4.85c1,2.18,1.54,7.45,1.54,15.83V250.27c0,8.38-.5,13.64-1.54,15.77a11.44,11.44,0,0,1-4.8,4.89v6.54h54.92v-108l-4.6,4.52-1.49-3.82-.89,6.17-4.55,4.47-.71-1.81-.79-2-.89,6.15-4.55,4.47-1.49-3.81-.89,6.15-8,7.83S152.08,183.72,163,173a28.07,28.07,0,0,1,7.5-5.3,27.49,27.49,0,0,1,9-2.63H174l1.62-3.76L170.62,165h-6.39l1.61-3.76-5,3.76h-6.38l1.61-3.76-5,3.76H140a31.57,31.57,0,0,1,23.89-11.35,28.42,28.42,0,0,1,6.63.79,27.49,27.49,0,0,1,10.34,4.84l-3.33-3.54,3.85-1.41-6.14-1-4.37-4.66,3.86-1.39-4.21-.71-1.93-.33-4.37-4.65,3.85-1.41-6.13-1L154.31,131a31.81,31.81,0,0,1,16.22,3.35,30.38,30.38,0,0,1,8.4,6.29,27.64,27.64,0,0,1,7.26,14.43,27.64,27.64,0,0,1,7.26-14.43A30,30,0,0,1,202,134.3a32,32,0,0,1,16-3.28l-7.63,8.14-1,.16-5.13.86,3.85,1.41-4.37,4.65-6.13,1,3.85,1.39-4.37,4.66-6.14,1,3.86,1.41-3.34,3.56a27.51,27.51,0,0,1,17-5.65,30.08,30.08,0,0,1,8.3,1.17A32,32,0,0,1,232.37,165H221.21l-3.59-2.72-1.36-1,1.42,3.35.19.41h-6.38l-5-3.76,1.61,3.76h-6.38l-5-3.76,1.61,3.76h-5.6A27.51,27.51,0,0,1,209.34,173a29.66,29.66,0,0,1,5.88,8.12,31.94,31.94,0,0,1,3.2,16.72l-8-7.83-.1-.72-.78-5.43-1.5,3.81-4.55-4.47-.89-6.15-1.5,3.82-4.55-4.47-.89-6.17L194.21,174l-4.6-4.52v50h42.12l-10.82-15.24q14.16-3.54,22.05-10.62,12.35-11.21,12.35-28.34A38.46,38.46,0,0,0,247.08,140.76Z"/><path class="cls-1" d="M272.15,271.5a18.5,18.5,0,0,1-3.59-2.14q-3.09-2.53-10.39-12.68l-26.44-37.21H189.61l41,58h41.53Z"/></g></svg>